<?xml version="1.0" encoding="UTF-8"?>
<svg id="Layer_1" data-name="Layer 1" xmlns="http://www.w3.org/2000/svg" xmlns:xlink="http://www.w3.org/1999/xlink" viewBox="0 0 16 16">
  <defs>
    <style>
      .cls-1 {
        fill: none;
        stroke: #fff;
        stroke-linecap: round;
        stroke-linejoin: round;
        stroke-width: .2px;
      }

      .cls-2 {
        fill: url(#linear-gradient);
      }
    </style>
    <linearGradient id="linear-gradient" x1="8" y1="1.25" x2="8" y2="9.22" gradientUnits="userSpaceOnUse">
      <stop offset="0" stop-color="#ffd9eb"/>
      <stop offset=".52" stop-color="#f8c9dd"/>
      <stop offset="1" stop-color="#e9b4cd"/>
    </linearGradient>
  </defs>
  <circle class="cls-2" cx="8" cy="8" r="7.87"/>
  <g>
    <path class="cls-1" d="m8,14.23h2.43c.57-1.36-.02-4.33-.14-4.91-.01-.06-.03-.12-.05-.18-.57-1.84,0-3.15,0-3.15.25-.91.66-1.92.66-1.92.18-.52-.52-.58-.52-.58l-.71-.07s-.05,0-.07-.01c-.16-.05-.33-.14-.49-.33-.44-.5-.4-1.3-.4-1.3h-.72s-.72,0-.72,0c0,0,.04.81-.4,1.3-.16.18-.34.28-.49.33-.02,0-.05.01-.07.01l-.71.07s-.7.06-.52.58c0,0,.4,1.01.66,1.92,0,0,.58,1.31,0,3.15-.02.06-.04.12-.05.18-.12.58-.71,3.55-.14,4.91h2.43Z"/>
    <path class="cls-1" d="m5.46,5.08s2.11-.83,2.54.67"/>
    <path class="cls-1" d="m10.54,5.08s-2.11-.83-2.54.67"/>
    <path class="cls-1" d="m10.54,13.92s-3.71-1.88-3.57-4.12-1.17-3.67-1.17-3.67"/>
    <path class="cls-1" d="m5.88,6.42s1.07,2.51.4,4.36c0,0-.74,2.19.83,3.45"/>
  </g>
</svg>