<?xml version="1.0" encoding="UTF-8"?>
<svg id="Layer_1" data-name="Layer 1" xmlns="http://www.w3.org/2000/svg" xmlns:xlink="http://www.w3.org/1999/xlink" viewBox="0 0 140.44 30">
  <defs>
    <style>
      .cls-1 {
        fill: none;
        stroke: #fff;
        stroke-linecap: round;
        stroke-linejoin: round;
        stroke-width: .36px;
      }

      .cls-2 {
        fill: #f8c9dd;
        font-family: Tangerine-Regular, Tangerine;
        font-size: 28.88px;
      }

      .cls-3 {
        fill: url(#linear-gradient);
      }
    </style>
    <linearGradient id="linear-gradient" x1="14.75" y1="2.52" x2="14.75" y2="17.26" gradientUnits="userSpaceOnUse">
      <stop offset="0" stop-color="#ffd9eb"/>
      <stop offset=".52" stop-color="#f8c9dd"/>
      <stop offset="1" stop-color="#e9b4cd"/>
    </linearGradient>
  </defs>
  <g>
    <circle class="cls-3" cx="14.75" cy="15" r="14.56"/>
    <g>
      <path class="cls-1" d="m14.75,26.53h4.5c1.06-2.51-.03-8.01-.26-9.08-.02-.12-.06-.23-.09-.34-1.06-3.39.01-5.82.01-5.82.47-1.68,1.22-3.56,1.22-3.56.33-.96-.96-1.08-.96-1.08l-1.31-.13s-.09-.01-.13-.03c-.29-.09-.61-.27-.91-.6-.81-.92-.74-2.41-.74-2.41h-1.33s-1.33,0-1.33,0c0,0,.08,1.49-.74,2.41-.3.34-.62.52-.91.6-.04.01-.09.02-.13.03l-1.31.13s-1.29.11-.96,1.08c0,0,.75,1.87,1.22,3.56,0,0,1.07,2.43.01,5.82-.04.11-.07.23-.09.34-.23,1.06-1.32,6.57-.26,9.08h4.5Z"/>
      <path class="cls-1" d="m10.05,9.6s3.9-1.53,4.69,1.25"/>
      <path class="cls-1" d="m19.44,9.6s-3.9-1.53-4.69,1.25"/>
      <path class="cls-1" d="m19.44,25.96s-6.87-3.48-6.6-7.62c.27-4.14-2.17-6.79-2.17-6.79"/>
      <path class="cls-1" d="m10.83,12.08s1.99,4.64.74,8.07c0,0-1.37,4.06,1.53,6.38"/>
    </g>
  </g>
  <text class="cls-2" transform="translate(37.15 25.74) scale(.83 1)"><tspan x="0" y="0">Elena’s Atelier</tspan></text>
</svg>